<mxfile host="app.diagrams.net" modified="2023-08-17T01:46:33.754Z" agent="Mozilla/5.0 (Macintosh; Intel Mac OS X 10_15_7) AppleWebKit/537.36 (KHTML, like Gecko) Chrome/116.0.0.0 Safari/537.36" etag="7rr8HAtoDioUVhBNdA99" version="21.6.8" type="github">
  <diagram name="第 1 页" id="qKVdJsg3p4E0KQdxNIH7">
    <mxGraphModel dx="2086" dy="1405" grid="1" gridSize="10" guides="1" tooltips="1" connect="1" arrows="1" fold="1" page="1" pageScale="1" pageWidth="827" pageHeight="1169" math="0" shadow="0">
      <root>
        <mxCell id="0" />
        <mxCell id="1" parent="0" />
      </root>
    </mxGraphModel>
  </diagram>
</mxfile>
